
        <svg xmlns="http://www.w3.org/2000/svg" xmlns:xlink="http://www.w3.org/1999/xlink" version="1.1" width="3162.3428298583476" 
        height="1487.7857195642332" viewBox="0 0 3162.3428298583476 1487.7857195642332">
			
			<g transform="scale(8.117141492917396) translate(10, 10)">
				<defs id="SvgjsDefs2824"></defs><g id="SvgjsG2825" featureKey="mugSzh-0" transform="matrix(1.8325086477742958,0,0,1.8325086477742958,-31.920465786783975,-9.98167465335985)" fill="#39e991"><path xmlns="http://www.w3.org/2000/svg" d="M49.995,50.239c0,0.016,0.001,0.031,0.001,0.047C50.018,50.606,49.992,48.802,49.995,50.239z"></path><path xmlns="http://www.w3.org/2000/svg" d="M50.003,50.286c0-0.016,0.001-0.031,0.001-0.047C50.008,48.802,49.982,50.606,50.003,50.286z"></path><path xmlns="http://www.w3.org/2000/svg" d="M82.582,62.082c-2.683-5.079-6.171-9.434-10.571-13.43c0.391,5.633-0.211,10.815-2.252,15.893  c1.453-0.718,2.751-1.36,4.071-2.012c1.248,4.029,0.145,8.547-2.784,11.629c-2.306,2.425-5.157,3.872-8.411,4.557  c-2.115,0.445-4.226,0.54-6.287-0.252c-1.766-0.678-2.638-1.86-2.633-3.626c0.033-9.918,0.093-31.891,0.124-41.81  c0.001-0.165,0.008-0.572,0.008-0.572s-0.157-4.506,2.798-4.531c-0.182,0.013-1.376,0.186-1.855,2.403  c0.361-0.388,0.824-0.699,1.396-0.923c1.42-0.555,2.919-0.954,4.415-1.259c1.555-0.316,3.15-0.437,4.715-0.642  c0-0.947,0-1.808,0-2.749c-3.832,0-7.585,0-11.42,0c-0.018-0.409-0.043-0.749-0.047-1.086c-0.005-0.067-0.011-0.223-0.02-0.521  c-0.023-0.743,0.218-1.154,0.854-1.562c3.286-2.11,4.721-6.138,3.595-9.882C57.176,8.047,53.805,5.511,50,5.447c0,0,0,0,0,0  c-3.805,0.064-7.176,2.6-8.276,6.263c-1.126,3.744,0.309,7.772,3.595,9.882c0.636,0.408,0.877,0.82,0.854,1.562  c-0.009,0.298-0.016,0.454-0.02,0.521c-0.003,0.337-0.028,0.676-0.047,1.086c-3.835,0-7.588,0-11.42,0c0,0.941,0,1.803,0,2.749  c1.564,0.205,3.159,0.325,4.714,0.642c1.497,0.305,2.995,0.704,4.415,1.259c1.573,0.614,2.341,1.881,2.347,3.622  c0.03,9.918,0.09,31.892,0.124,41.81c0,0,0.259,6.236-3.928,6.236c0,0,2.075-0.313,2.748-3.46c-0.39,0.339-0.868,0.624-1.452,0.849  c-2.061,0.791-4.171,0.697-6.287,0.252c-3.254-0.685-6.105-2.132-8.411-4.557c-2.929-3.083-4.032-7.6-2.784-11.629  c0,0,0.67-2.093,0.966-2.586c0,0-0.227,1.482-0.211,2.959c1.066,0.527,2.14,1.057,3.315,1.639  c-2.041-5.077-2.643-10.259-2.252-15.893c-4.401,3.996-7.888,8.352-10.571,13.43c1.299-0.13,2.527-0.254,3.888-0.39  c-0.11,1.287-0.211,2.349-0.291,3.413c-0.222,2.928-0.035,5.825,0.772,8.658c1.293,4.543,4.16,7.867,8.103,10.337  c3.925,2.459,8.24,3.997,12.674,5.178c3.474,0.926,5.169,1.994,7.329,5.275c0.034-0.015,0.073-0.026,0.108-0.039  c0.035,0.014,0.074,0.025,0.108,0.039c2.16-3.281,3.855-4.349,7.329-5.275c4.435-1.182,8.749-2.719,12.674-5.178  c3.943-2.471,6.81-5.794,8.103-10.337c0.807-2.834,0.994-5.73,0.772-8.658c-0.08-1.064-0.181-2.126-0.291-3.413  c0,0-0.329-2.073-1.084-4.142c0,0,1.366,1.927,2.017,4.235C80.632,61.886,81.587,61.982,82.582,62.082z M50,19.386  c-2.779-0.084-4.972-2.314-4.983-5.107c-0.01-2.81,2.2-5.079,4.983-5.165c2.783,0.086,4.994,2.354,4.983,5.165  C54.972,17.072,52.779,19.302,50,19.386z"></path></g><g id="SvgjsG2826" featureKey="PPkF4s-0" transform="matrix(3.146673568985697,0,0,3.146673568985697,139,33.06396275741277)" fill="#ffffff"><path d="M3.72 9 l0.72 0 l-3.72 3.84 l3.72 3.84 l-0.72 0 l-3.72 -3.84 z M12.440000000000001 20 l-0.56 -2.26 l-5.48 0 l-0.56 2.26 l-0.6 0 l3.54 -14.3 l0.72 0 l3.54 14.3 l-0.6 0 z M6.54 17.14 l5.2 0 l-2.6 -10.44 z M20.4 5.699999999999999 l0.58 0 l0 14.3 l-0.58 0 l0 -2.58 c-0.1 -4.58 -2.44 -8.6 -5.98 -11.02 l0 13.6 l-0.58 0 l0 -14.3 l0.58 0 c2.86 1.82 5 4.64 5.98 7.98 l0 -7.98 z M31.42 18.92 l0.44 0.44 c-0.9 0.4 -1.88 0.64 -2.94 0.64 c-3.94 0 -7.14 -3.22 -7.14 -7.16 s3.2 -7.14 7.14 -7.14 c1.06 0 2.04 0.22 2.94 0.62 l-0.44 0.44 c-0.76 -0.3 -1.6 -0.48 -2.5 -0.48 c-3.62 0 -6.56 2.94 -6.56 6.56 s2.94 6.56 6.56 6.56 c0.9 0 1.74 -0.16 2.5 -0.48 z M37.540000000000006 5.699999999999999 l0.58 0 l0 14.3 l-0.58 0 l0 -9.16 l-4.3 0 l0 9.16 l-0.58 0 l0 -14.3 l0.58 0 l0 4.52 l4.3 0 l0 -4.52 z M46.06 6.279999999999999 c-3.62 0 -6.54 2.94 -6.54 6.56 s2.92 6.56 6.54 6.56 s6.58 -2.94 6.58 -6.56 s-2.96 -6.56 -6.58 -6.56 z M46.06 5.699999999999999 c3.96 0 7.16 3.2 7.16 7.14 s-3.2 7.16 -7.16 7.16 c-3.94 0 -7.14 -3.22 -7.14 -7.16 s3.2 -7.14 7.14 -7.14 z M59.480000000000004 10.58 c0 1.86 -1.02 3.48 -2.54 4.3 l2.54 5.12 l-0.66 0 l-2.42 -4.88 c-0.52 0.22 -1.1 0.34 -1.7 0.34 l-0.1 0 l0 4.54 l-0.58 0 l0 -14.3 l0.68 0 c2.64 0 4.78 2.18 4.78 4.88 z M54.6 6.279999999999999 l0 8.6 l0.1 0 c2.32 0 4.2 -1.94 4.2 -4.3 c0 -2.38 -1.88 -4.3 -4.2 -4.3 l-0.1 0 z M60.94 20 l-0.66 0 l7.12 -14.3 l0.64 0 z M69.56 16.68 l-0.72 0 l3.72 -3.84 l-3.72 -3.84 l0.72 0 l3.72 3.84 z"></path></g><g id="SvgjsG2827" featureKey="uwAHB0-0" transform="matrix(0.4216616294627687,0,0,0.4216616294627687,168.1819763644486,103.68937850828945)" fill="#39e991"><path d="M10.42 5.84 l0 1.2 l-7.16 0 l0 5.04 l6.66 0 l0 1.2 l-6.66 0 l0 6.72 l-1.32 0 l0 -14.16 l8.48 0 z M23.684 12.92 q0 2.7 1.66 4.45 t4.34 1.79 q2.7 0 4.34 -1.77 t1.66 -4.47 q0 -2.74 -1.64 -4.47 t-4.38 -1.77 q-2.68 0 -4.32 1.76 t-1.66 4.48 z M29.684 5.48 q2.16 0 3.82 0.95 t2.57 2.66 t0.93 3.83 q0 3.26 -2.06 5.33 t-5.26 2.11 q-3.22 0 -5.24 -2.09 t-2.08 -5.35 q0.02 -3.26 2.04 -5.32 t5.28 -2.12 z M54.408 12.08 q1.54 0 2.38 -0.69 t0.84 -1.83 t-0.82 -1.82 t-2.44 -0.7 l-2.86 0 l0 5.04 l2.9 0 z M54.008 5.84 q4.9 0 4.94 3.72 q0 3.14 -3.62 3.64 l4.12 6.8 l-1.5 0 l-3.98 -6.72 l-2.46 0 l0 6.72 l-1.32 0 l0 -14.16 l3.82 0 z M91.656 18.8 q3.04 0 4.8 -1.54 t1.78 -4.24 q0 -2.88 -1.75 -4.42 t-4.89 -1.56 l-2.76 0 l0 11.76 l2.82 0 z M91.936 5.84 q3.56 0 5.57 1.92 t2.05 5.26 q0 1.96 -0.89 3.55 t-2.56 2.51 t-4.09 0.92 l-4.5 0 l0 -14.16 l4.42 0 z M114.06 5.84 l0 14.16 l-1.32 0 l0 -14.16 l1.32 0 z M134.564 5.48 q3.2 -0.02 5.1 1.96 l-0.96 1 q-0.6 -0.74 -1.77 -1.25 t-2.37 -0.51 q-2.66 0 -4.32 1.76 t-1.68 4.48 q0 2.7 1.64 4.44 t4.38 1.8 q2.6 0 3.94 -0.84 l0 -4.76 l-3.4 0 l0 -1.2 l4.72 0 l0 6.72 q-2.3 1.28 -5.28 1.28 q-3.2 0 -5.23 -2.09 t-2.09 -5.35 q0.02 -3.28 2.06 -5.34 t5.26 -2.1 z M155.26799999999997 5.84 l0 14.16 l-1.32 0 l0 -14.16 l1.32 0 z M178.672 5.84 l0 1.2 l-4.84 0 l0 12.96 l-1.32 0 l0 -12.96 l-4.84 0 l0 -1.2 l11 0 z M192.736 15.04 l6.5 0 l-3.2 -7.76 z M196.77599999999998 5.84 l5.96 14.16 l-1.48 0 l-1.54 -3.76 l-7.5 0 l-1.6 3.76 l-1.38 0 l6.18 -14.16 l1.36 0 z M216.32 5.84 l0 12.96 l6.6 0 l0 1.2 l-7.92 0 l0 -14.16 l1.32 0 z M254.688 5.48 q2.46 0 3.86 1.78 l-1.14 0.82 q-1.04 -1.4 -2.76 -1.4 q-1.4 0 -2.27 0.72 t-0.91 1.96 q0 1.08 0.66 1.75 t2.3 1.13 q2.16 0.64 2.88 1.13 t1.09 1.21 t0.37 1.8 q0 1.72 -1.23 2.83 t-3.17 1.15 q-3.06 0 -4.6 -2.14 l1.26 -0.84 q1.06 1.76 3.24 1.78 q1.42 0 2.3 -0.79 t0.88 -1.99 q0 -0.7 -0.25 -1.15 t-0.76 -0.78 t-1.3 -0.6 t-1.85 -0.63 q-1.6 -0.52 -2.37 -1.46 t-0.77 -2.4 q0 -1.72 1.29 -2.8 t3.25 -1.08 z M280.65200000000004 5.84 l0 1.2 l-7.34 0 l0 5.04 l6.88 0 l0 1.2 l-6.88 0 l0 5.52 l7.66 0 l0 1.2 l-8.98 0 l0 -14.16 l8.66 0 z M298.29600000000005 12.08 q1.54 0 2.38 -0.69 t0.84 -1.83 t-0.82 -1.82 t-2.44 -0.7 l-2.86 0 l0 5.04 l2.9 0 z M297.896 5.84 q4.9 0 4.94 3.72 q0 3.14 -3.62 3.64 l4.12 6.8 l-1.5 0 l-3.98 -6.72 l-2.46 0 l0 6.72 l-1.32 0 l0 -14.16 l3.82 0 z M315.58000000000004 5.84 l4.56 12.42 l4.6 -12.42 l1.4 0 l-5.38 14.16 l-1.32 0 l-5.28 -14.16 l1.42 0 z M339.564 5.84 l0 14.16 l-1.32 0 l0 -14.16 l1.32 0 z M360.068 5.48 q3.14 0 4.88 2.22 l-1.08 0.9 q-0.6 -0.9 -1.6 -1.41 t-2.2 -0.51 q-2.64 0 -4.3 1.74 t-1.7 4.5 q0 2.74 1.67 4.47 t4.33 1.77 q1.14 0 2.32 -0.57 t1.86 -1.63 l1.08 0.82 q-1.88 2.58 -5.26 2.58 q-3.28 -0.02 -5.27 -2.12 t-2.05 -5.32 q0 -3.26 2.05 -5.33 t5.27 -2.11 z M386.63200000000006 5.84 l0 1.2 l-7.34 0 l0 5.04 l6.88 0 l0 1.2 l-6.88 0 l0 5.52 l7.66 0 l0 1.2 l-8.98 0 l0 -14.16 l8.66 0 z M404.09600000000006 5.48 q2.46 0 3.86 1.78 l-1.14 0.82 q-1.04 -1.4 -2.76 -1.4 q-1.4 0 -2.27 0.72 t-0.91 1.96 q0 1.08 0.66 1.75 t2.3 1.13 q2.16 0.64 2.88 1.13 t1.09 1.21 t0.37 1.8 q0 1.72 -1.23 2.83 t-3.17 1.15 q-3.06 0 -4.6 -2.14 l1.26 -0.84 q1.06 1.76 3.24 1.78 q1.42 0 2.3 -0.79 t0.88 -1.99 q0 -0.7 -0.25 -1.15 t-0.76 -0.78 t-1.3 -0.6 t-1.85 -0.63 q-1.6 -0.52 -2.37 -1.46 t-0.77 -2.4 q0 -1.72 1.29 -2.8 t3.25 -1.08 z"></path></g>
			</g>
		</svg>
	